<svg width="24" height="24" viewBox="0 0 24 24" fill="none" xmlns="http://www.w3.org/2000/svg">
<path fill-rule="evenodd" clip-rule="evenodd" d="M15.6254 4.18391C15.6254 4.64135 16.0049 5.02069 16.4625 5.02069C16.9201 5.02069 17.2995 4.64135 17.2995 4.18391V3.58812C18.0596 3.74209 18.6165 3.99424 19.0295 4.40705C19.6233 5.00172 19.8844 5.88871 20.0005 7.2521H1.76344C1.87951 5.88871 2.14068 5.00172 2.73444 4.40705C3.1474 3.99424 3.70433 3.74209 4.4644 3.58812V4.18391C4.4644 4.64135 4.84387 5.02069 5.30147 5.02069C5.75907 5.02069 6.13854 4.64135 6.13854 4.18391V3.39956C7.11625 3.34712 8.30824 3.34712 9.76587 3.34712H11.9981C13.4557 3.34712 14.6477 3.34712 15.6254 3.39956V4.18391ZM1.68866 8.92567C1.67415 9.66092 1.67415 10.4921 1.67415 11.436V14.2264C1.67415 18.1983 1.67415 20.1954 2.73444 21.2554C3.79474 22.3153 5.79255 22.3153 9.76587 22.3153H11.44C11.8976 22.3153 12.2771 22.6946 12.2771 23.1521C12.2771 23.6095 11.8976 23.9888 11.44 23.9888H9.76587C5.32379 23.9888 3.10276 23.9888 1.55138 22.438C1.33049e-07 20.8872 0 18.6669 0 14.2264V11.4371C0 6.99661 1.33049e-07 4.77635 1.55138 3.22551C2.30474 2.47129 3.2166 2.08414 4.4644 1.88443V0.836781C4.4644 0.379341 4.84387 0 5.30147 0C5.75907 0 6.13854 0.379341 6.13854 0.836781V1.72488C7.15419 1.67356 8.3473 1.67356 9.76587 1.67356H11.9981C13.4166 1.67356 14.6097 1.67356 15.6254 1.72488V0.836781C15.6254 0.379341 16.0049 0 16.4625 0C16.9201 0 17.2995 0.379341 17.2995 0.836781V1.88555C18.5473 2.08414 19.4592 2.47129 20.2126 3.2244C21.7639 4.77523 21.7639 6.99549 21.7639 11.436V13.1096C21.7639 13.567 21.3845 13.9464 20.9269 13.9464C20.4693 13.9464 20.0898 13.567 20.0898 13.1096V11.436C20.0898 10.4921 20.0898 9.66092 20.0753 8.92567H1.68866ZM16.4625 23.9877H16.362C16.205 23.9669 16.057 23.9026 15.9347 23.802C15.8124 23.7014 15.7207 23.5687 15.67 23.4187C15.1064 21.6961 14.0383 21.194 13.9356 21.146L13.9289 21.1438C13.725 21.0602 13.5619 20.9002 13.4743 20.698C13.3867 20.4958 13.3816 20.2674 13.4602 20.0616C13.6276 19.6376 14.1075 19.4256 14.5316 19.5818C14.5963 19.6075 15.718 20.0549 16.6076 21.4673C17.8911 19.6934 20.4469 16.5359 22.88 15.6657C23.3153 15.5095 23.7952 15.7438 23.9515 16.1789C24.1077 16.614 23.8734 17.0938 23.4381 17.25C21.0831 18.0867 18.1143 22.1256 17.1656 23.6095C17.0906 23.7284 16.9869 23.8265 16.864 23.8947C16.7411 23.963 16.603 23.9992 16.4625 24V23.9877Z" fill="black"/>
</svg>
