<svg width="24" height="24" viewBox="0 0 24 24" fill="none" xmlns="http://www.w3.org/2000/svg">
<path d="M6 4.5V3.75C6 1.67812 10.0312 0 15 0C19.9688 0 24 1.67812 24 3.75V4.5C24 5.93437 22.0641 7.18125 19.2188 7.81406C19.1063 7.68281 18.9891 7.55625 18.8719 7.43906C18.1453 6.72187 17.2078 6.17812 16.2281 5.775C14.2641 4.95469 11.7047 4.50469 9 4.50469C7.97344 4.50469 6.97031 4.57031 6.00937 4.69687C6 4.63594 6 4.57031 6 4.50469V4.5ZM20.25 16.5469V14.3812C20.9578 14.1984 21.6234 13.9828 22.2281 13.7297C22.8469 13.4719 23.4516 13.1578 24 12.7781V13.5C24 14.7563 22.5234 15.8672 20.25 16.5469ZM20.25 12.0469V10.5C20.25 10.2891 20.2313 10.0875 20.2031 9.89062C20.9297 9.70781 21.6094 9.4875 22.2281 9.225C22.8469 8.9625 23.4516 8.65312 24 8.27344V8.99531C24 10.2516 22.5234 11.3625 20.25 12.0422V12.0469ZM0 11.25V10.5C0 8.42813 4.03125 6.75 9 6.75C13.9688 6.75 18 8.42813 18 10.5V11.25C18 13.3219 13.9688 15 9 15C4.03125 15 0 13.3219 0 11.25ZM18 15.75C18 17.8219 13.9688 19.5 9 19.5C4.03125 19.5 0 17.8219 0 15.75V15.0281C0.54375 15.4078 1.14844 15.7172 1.77187 15.9797C3.73594 16.8 6.29531 17.25 9 17.25C11.7047 17.25 14.2641 16.7953 16.2281 15.9797C16.8469 15.7219 17.4516 15.4078 18 15.0281V15.75ZM18 19.5281V20.25C18 22.3219 13.9688 24 9 24C4.03125 24 0 22.3219 0 20.25V19.5281C0.54375 19.9078 1.14844 20.2172 1.77187 20.4797C3.73594 21.3 6.29531 21.75 9 21.75C11.7047 21.75 14.2641 21.2953 16.2281 20.4797C16.8469 20.2219 17.4516 19.9078 18 19.5281Z" fill="black"/>
</svg>
