<svg width="24" height="24" viewBox="0 0 24 24" fill="none" xmlns="http://www.w3.org/2000/svg">
<path d="M9.52804 1.4997C9.72725 1.0566 10.069 0.67713 10.5094 0.409938C10.9498 0.142745 11.4689 0 12 0C12.5311 0 13.0502 0.142745 13.4906 0.409938C13.931 0.67713 14.2727 1.0566 14.472 1.4997C16.4439 1.98712 18.1834 3.04392 19.423 4.50762C20.6627 5.97132 21.3338 7.7609 21.3332 9.60124V15.2371L23.7758 18.5343C23.9098 18.715 23.9867 18.925 23.9984 19.142C24.0101 19.359 23.9562 19.5748 23.8423 19.7663C23.7284 19.9578 23.5589 20.118 23.3518 20.2296C23.1447 20.3412 22.9079 20.4001 22.6665 20.4001H16.6199C16.4594 21.3997 15.904 22.3138 15.0556 22.975C14.2071 23.6361 13.1223 24 12 24C10.8777 24 9.79292 23.6361 8.94445 22.975C8.09598 22.3138 7.54061 21.3997 7.38008 20.4001H1.33351C1.09212 20.4001 0.855256 20.3412 0.648177 20.2296C0.441098 20.118 0.271576 19.9578 0.157698 19.7663C0.0438206 19.5748 -0.0101408 19.359 0.00157044 19.142C0.0132817 18.925 0.0902265 18.715 0.224196 18.5343L2.66682 15.2371V9.60124C2.66682 5.73285 5.57344 2.47399 9.52804 1.4997ZM10.1147 20.4001C10.2524 20.7513 10.5077 21.0553 10.8455 21.2704C11.1833 21.4855 11.5869 21.601 12.0007 21.601C12.4144 21.601 12.818 21.4855 13.1558 21.2704C13.4936 21.0553 13.7489 20.7513 13.8866 20.4001H10.1147ZM12 3.60187C10.2319 3.60187 8.53625 4.23395 7.28603 5.35905C6.03581 6.48415 5.33344 8.01011 5.33344 9.60124V15.6006C5.3335 15.8376 5.25556 16.0693 5.10945 16.2665L3.82547 18.0004H20.1732L18.8892 16.2665C18.7436 16.0692 18.6661 15.8375 18.6666 15.6006V9.60124C18.6666 8.01011 17.9642 6.48415 16.714 5.35905C15.4637 4.23395 13.7681 3.60187 12 3.60187Z" fill="black"/>
</svg>
