<svg width="21" height="20" viewBox="0 0 21 20" fill="none" xmlns="http://www.w3.org/2000/svg">
<path d="M19.2922 3.8863L9.29222 13.8863C9.19971 13.979 9.08982 14.0525 8.96885 14.1027C8.84787 14.1529 8.71819 14.1787 8.58722 14.1787C8.45625 14.1787 8.32657 14.1529 8.2056 14.1027C8.08462 14.0525 7.97474 13.979 7.88222 13.8863L5.05222 11.0563C4.95964 10.9637 4.8862 10.8538 4.83609 10.7328C4.78599 10.6119 4.7602 10.4822 4.7602 10.3513C4.7602 10.2204 4.78599 10.0907 4.83609 9.96975C4.8862 9.84879 4.95964 9.73888 5.05222 9.6463C5.1448 9.55371 5.25471 9.48028 5.37568 9.43017C5.49664 9.38006 5.62629 9.35428 5.75722 9.35428C5.88815 9.35428 6.0178 9.38006 6.13876 9.43017C6.25973 9.48028 6.36964 9.55371 6.46222 9.6463L8.58222 11.7663L17.8722 2.4763C17.9647 2.38359 18.0746 2.31005 18.1956 2.25986C18.3166 2.20968 18.4463 2.18385 18.5772 2.18385C18.7082 2.18385 18.8379 2.20968 18.9588 2.25986C19.0798 2.31005 19.1897 2.38359 19.2822 2.4763C19.6822 2.8663 19.6822 3.4963 19.2922 3.8863ZM13.7722 0.736297C12.0822 0.0462965 10.1622 -0.193703 8.16222 0.166297C4.09222 0.896297 0.842221 4.1763 0.152221 8.2463C-0.121328 9.79691 -0.0252247 11.3902 0.432724 12.8967C0.890673 14.4032 1.69755 15.7804 2.7878 16.9164C3.87805 18.0525 5.22092 18.9153 6.70731 19.4348C8.19369 19.9543 9.78167 20.1159 11.3422 19.9063C15.3022 19.3963 18.6222 16.4463 19.6622 12.5963C20.0622 11.1263 20.1022 9.7063 19.8722 8.3763C19.7422 7.5763 18.7522 7.2663 18.1722 7.8363C17.9422 8.0663 17.8422 8.4063 17.9022 8.7263C18.1222 10.0563 18.0222 11.4763 17.3822 12.9863C16.2222 15.6963 13.7022 17.6863 10.7722 17.9563C5.67222 18.4263 1.44222 14.1063 2.07222 8.9763C2.50222 5.4363 5.35222 2.5563 8.88222 2.0663C10.6122 1.8263 12.2522 2.1563 13.6522 2.8763C13.8883 2.99962 14.1636 3.02413 14.4177 2.94443C14.6719 2.86472 14.8839 2.68734 15.0072 2.4513C15.1305 2.21525 15.1551 1.93989 15.0754 1.68578C14.9956 1.43166 14.8183 1.21962 14.5822 1.0963C14.3122 0.976296 14.0422 0.846297 13.7722 0.736297Z" fill="black"/>
</svg>
