<svg width="24" height="20" viewBox="0 0 24 20" fill="none" xmlns="http://www.w3.org/2000/svg">
<path d="M13.284 8.54669C14.0129 7.41505 14.4049 6.05832 14.4049 4.6667C14.4049 3.27509 14.0129 1.91836 13.284 0.786714C13.9666 0.27009 14.7741 -0.00421911 15.6 4.90619e-05C16.7139 4.90619e-05 17.7822 0.491713 18.5699 1.36688C19.3575 2.24205 19.8 3.42903 19.8 4.6667C19.8 5.90438 19.3575 7.09136 18.5699 7.96653C17.7822 8.84169 16.7139 9.33336 15.6 9.33336C14.7741 9.33763 13.9666 9.06332 13.284 8.54669ZM4.2 4.6667C4.2 3.74373 4.44633 2.84148 4.90783 2.07405C5.36933 1.30662 6.02528 0.708485 6.79273 0.355277C7.56018 0.00206919 8.40466 -0.0903462 9.21938 0.0897178C10.0341 0.269782 10.7825 0.714238 11.3698 1.36688C11.9572 2.01952 12.3572 2.85104 12.5193 3.75628C12.6814 4.66153 12.5982 5.59984 12.2803 6.45256C11.9624 7.30527 11.4241 8.03411 10.7334 8.54689C10.0427 9.05966 9.23068 9.33336 8.4 9.33336C7.28609 9.33336 6.2178 8.84169 5.43015 7.96653C4.6425 7.09136 4.2 5.90438 4.2 4.6667ZM6.6 4.6667C6.6 5.06227 6.70557 5.44894 6.90336 5.77784C7.10114 6.10674 7.38226 6.36308 7.71117 6.51446C8.04008 6.66583 8.402 6.70544 8.75116 6.62827C9.10033 6.5511 9.42106 6.36062 9.67279 6.08091C9.92453 5.80121 10.096 5.44484 10.1654 5.05688C10.2349 4.66892 10.1992 4.26679 10.063 3.90134C9.92675 3.53589 9.69603 3.22353 9.40003 3.00377C9.10402 2.78401 8.75601 2.66671 8.4 2.66671C7.92261 2.66671 7.46477 2.87742 7.12721 3.25249C6.78964 3.62757 6.6 4.13627 6.6 4.6667ZM16.8 17.3333V20H0V17.3333C0 17.3333 0 12 8.4 12C16.8 12 16.8 17.3333 16.8 17.3333ZM14.4 17.3333C14.232 16.2933 12.804 14.6667 8.4 14.6667C3.996 14.6667 2.484 16.4133 2.4 17.3333M16.74 12C17.4755 12.6357 18.0768 13.4425 18.5018 14.3638C18.9268 15.2852 19.1651 16.2988 19.2 17.3333V20H24V17.3333C24 17.3333 24 12.4934 16.728 12H16.74Z" fill="black"/>
</svg>
