<svg width="18" height="13" viewBox="0 0 18 13" fill="none" xmlns="http://www.w3.org/2000/svg">
<path fill-rule="evenodd" clip-rule="evenodd" d="M16.5003 13C16.7969 12.9999 17.0869 12.891 17.3335 12.6869C17.5801 12.4828 17.7723 12.1928 17.8858 11.8535C17.9993 11.5142 18.029 11.1408 17.9712 10.7806C17.9133 10.4204 17.7705 10.0895 17.5608 9.82976L10.0605 0.543763C9.77924 0.195592 9.39776 0 9 0C8.60224 0 8.22076 0.195592 7.93946 0.543763L0.439197 9.82976C0.229475 10.0895 0.0866596 10.4204 0.0288062 10.7806C-0.0290472 11.1408 0.000658706 11.5142 0.114168 11.8535C0.227677 12.1928 0.419893 12.4828 0.666516 12.6869C0.91314 12.891 1.2031 12.9999 1.49973 13H16.5003Z" fill="black"/>
</svg>
