<svg width="18" height="13" viewBox="0 0 18 13" fill="none" xmlns="http://www.w3.org/2000/svg">
<path fill-rule="evenodd" clip-rule="evenodd" d="M1.49973 0C1.2031 7.82013e-05 0.913139 0.109043 0.666515 0.31312C0.419891 0.517197 0.227676 0.807224 0.114168 1.14653C0.000659943 1.48584 -0.029047 1.8592 0.0288067 2.21941C0.0866604 2.57962 0.229471 2.91051 0.439194 3.17024L7.93946 12.4562C8.22076 12.8044 8.60224 13 9 13C9.39776 13 9.77924 12.8044 10.0605 12.4562L17.5608 3.17024C17.7705 2.91051 17.9133 2.57962 17.9712 2.21941C18.029 1.8592 17.9993 1.48584 17.8858 1.14653C17.7723 0.807224 17.5801 0.517197 17.3335 0.31312C17.0869 0.109043 16.7969 7.82013e-05 16.5003 0L1.49973 0Z" fill="black"/>
</svg>
