<svg width="43" height="35" viewBox="0 0 43 35" fill="none" xmlns="http://www.w3.org/2000/svg">
<path d="M0 0H43V34.7919H0V0Z" fill="white"/>
<path d="M13.1437 24.3573C13.4398 23.6782 13.9889 23.0902 14.7154 22.6742C15.4419 22.2583 16.31 22.0349 17.2 22.0349C18.09 22.0349 18.958 22.2583 19.6845 22.6742C20.411 23.0902 20.9602 23.6782 21.2563 24.3573H35.8333V26.6767H21.2563C20.9602 27.3558 20.411 27.9438 19.6845 28.3597C18.958 28.7757 18.09 28.999 17.2 28.999C16.31 28.999 15.4419 28.7757 14.7154 28.3597C13.9889 27.9438 13.4398 27.3558 13.1437 26.6767H7.16666V24.3573H13.1437ZM21.7437 16.2391C22.0398 15.5601 22.589 14.972 23.3155 14.5561C24.042 14.1402 24.91 13.9168 25.8 13.9168C26.69 13.9168 27.558 14.1402 28.2845 14.5561C29.011 14.972 29.5602 15.5601 29.8563 16.2391H35.8333V18.5586H29.8563C29.5602 19.2377 29.011 19.8257 28.2845 20.2416C27.558 20.6575 26.69 20.8809 25.8 20.8809C24.91 20.8809 24.042 20.6575 23.3155 20.2416C22.589 19.8257 22.0398 19.2377 21.7437 18.5586H7.16666V16.2391H21.7437ZM13.1437 8.12101C13.4398 7.44195 13.9889 6.85393 14.7154 6.438C15.4419 6.02207 16.31 5.79871 17.2 5.79871C18.09 5.79871 18.958 6.02207 19.6845 6.438C20.411 6.85393 20.9602 7.44195 21.2563 8.12101H35.8333V10.4405H21.2563C20.9602 11.1195 20.411 11.7076 19.6845 12.1235C18.958 12.5394 18.09 12.7628 17.2 12.7628C16.31 12.7628 15.4419 12.5394 14.7154 12.1235C13.9889 11.7076 13.4398 11.1195 13.1437 10.4405H7.16666V8.12101H13.1437ZM17.2 10.4405C17.5801 10.4405 17.9447 10.3183 18.2135 10.1008C18.4823 9.8833 18.6333 9.58832 18.6333 9.28074C18.6333 8.97316 18.4823 8.67818 18.2135 8.46069C17.9447 8.2432 17.5801 8.12101 17.2 8.12101C16.8198 8.12101 16.4553 8.2432 16.1865 8.46069C15.9177 8.67818 15.7667 8.97316 15.7667 9.28074C15.7667 9.58832 15.9177 9.8833 16.1865 10.1008C16.4553 10.3183 16.8198 10.4405 17.2 10.4405ZM25.8 18.5586C26.1801 18.5586 26.5447 18.4364 26.8135 18.2189C27.0823 18.0014 27.2333 17.7064 27.2333 17.3989C27.2333 17.0913 27.0823 16.7963 26.8135 16.5788C26.5447 16.3613 26.1801 16.2391 25.8 16.2391C25.4198 16.2391 25.0553 16.3613 24.7865 16.5788C24.5177 16.7963 24.3667 17.0913 24.3667 17.3989C24.3667 17.7064 24.5177 18.0014 24.7865 18.2189C25.0553 18.4364 25.4198 18.5586 25.8 18.5586ZM17.2 26.6767C17.5801 26.6767 17.9447 26.5545 18.2135 26.337C18.4823 26.1195 18.6333 25.8246 18.6333 25.517C18.6333 25.2094 18.4823 24.9144 18.2135 24.6969C17.9447 24.4794 17.5801 24.3573 17.2 24.3573C16.8198 24.3573 16.4553 24.4794 16.1865 24.6969C15.9177 24.9144 15.7667 25.2094 15.7667 25.517C15.7667 25.8246 15.9177 26.1195 16.1865 26.337C16.4553 26.5545 16.8198 26.6767 17.2 26.6767Z" fill="black"/>
</svg>
