<svg width="24" height="24" viewBox="0 0 24 24" fill="none" xmlns="http://www.w3.org/2000/svg">
<path fill-rule="evenodd" clip-rule="evenodd" d="M5.45364 5.14286C5.45364 2.30254 8.38454 0 12 0C15.6154 0 18.5463 2.30254 18.5463 5.14286C18.5463 7.98318 15.6154 10.2857 12 10.2857C8.38454 10.2857 5.45364 7.98318 5.45364 5.14286Z" fill="white"/>
<path fill-rule="evenodd" clip-rule="evenodd" d="M0.000162834 21.2632C0.112673 16.1321 5.44198 12 12 12C18.5582 12 23.8876 16.1323 23.9998 21.2636C24.0073 21.6039 23.7577 21.9154 23.364 22.0574C19.9032 23.3049 16.0537 24 12.0005 24C7.94687 24 4.097 23.3048 0.635997 22.057C0.242241 21.9151 -0.00729902 21.6035 0.000162834 21.2632Z" fill="white"/>
</svg>
