<svg width="20" height="24" viewBox="0 0 20 24" fill="none" xmlns="http://www.w3.org/2000/svg">
<path d="M10 0C7.34876 0.00283581 4.80697 0.997121 2.93225 2.76472C1.05754 4.53233 0.00300765 6.9289 0 9.42867C0 17.4966 9.09091 23.5899 9.47841 23.8449C9.63126 23.9458 9.81337 24 10 24C10.1866 24 10.3687 23.9458 10.5216 23.8449C10.9091 23.5899 20 17.4966 20 9.42867C19.997 6.9289 18.9425 4.53233 17.0677 2.76472C15.193 0.997121 12.6512 0.00283581 10 0ZM10 6.00006C10.7192 6.00006 11.4223 6.20114 12.0203 6.57788C12.6183 6.95462 13.0843 7.4901 13.3596 8.1166C13.6348 8.74309 13.7068 9.43247 13.5665 10.0976C13.4262 10.7626 13.0799 11.3736 12.5713 11.8531C12.0627 12.3326 11.4148 12.6591 10.7094 12.7914C10.004 12.9237 9.27288 12.8558 8.60842 12.5963C7.94397 12.3368 7.37604 11.8973 6.97647 11.3335C6.57691 10.7697 6.36364 10.1068 6.36364 9.42867C6.36364 8.51934 6.74675 7.64726 7.4287 7.00428C8.11065 6.36129 9.03558 6.00006 10 6.00006Z" fill="white"/>
</svg>
