<svg width="24" height="24" viewBox="0 0 24 24" fill="none" xmlns="http://www.w3.org/2000/svg">
<path fill-rule="evenodd" clip-rule="evenodd" d="M13.058 0C12.7525 0 12.4595 0.107821 12.2435 0.299743C12.0275 0.491665 11.9062 0.751967 11.9062 1.02339V2.55846C11.9062 2.82988 12.0275 3.09019 12.2435 3.28211C12.4595 3.47403 12.7525 3.58185 13.058 3.58185C13.3635 3.58185 13.6564 3.47403 13.8724 3.28211C14.0884 3.09019 14.2098 2.82988 14.2098 2.55846V1.02339C14.2098 0.751967 14.0884 0.491665 13.8724 0.299743C13.6564 0.107821 13.3635 0 13.058 0ZM3.26776 10.7456C2.96229 10.7456 2.66932 10.6377 2.45332 10.4458C2.23732 10.2539 2.11597 9.99358 2.11597 9.72217C2.11597 9.45075 2.23732 9.19044 2.45332 8.99852C2.66932 8.8066 2.96229 8.69878 3.26776 8.69878H4.99545C5.30092 8.69878 5.59388 8.8066 5.80989 8.99852C6.02589 9.19044 6.14724 9.45075 6.14724 9.72217C6.14724 9.99358 6.02589 10.2539 5.80989 10.4458C5.59388 10.6377 5.30092 10.7456 4.99545 10.7456H3.26776ZM22.8482 10.7456C23.1537 10.7456 23.4466 10.6377 23.6626 10.4458C23.8787 10.2539 24 9.99358 24 9.72217C24 9.45075 23.8787 9.19044 23.6626 8.99852C23.4466 8.8066 23.1537 8.69878 22.8482 8.69878H21.1205C20.815 8.69878 20.5221 8.8066 20.3061 8.99852C20.0901 9.19044 19.9687 9.45075 19.9687 9.72217C19.9687 9.99358 20.0901 10.2539 20.3061 10.4458C20.5221 10.6377 20.815 10.7456 21.1205 10.7456H22.8482ZM5.32025 4.29566C5.10428 4.1037 4.98298 3.84337 4.98304 3.57195C4.98309 3.30052 5.10449 3.04023 5.32054 2.84834C5.53659 2.65645 5.82958 2.54867 6.13506 2.54872C6.44054 2.54876 6.73349 2.65663 6.94946 2.84859L8.17094 3.93338C8.27795 4.0284 8.36285 4.14121 8.4208 4.26538C8.47874 4.38955 8.50859 4.52265 8.50864 4.65707C8.5087 4.79149 8.47895 4.9246 8.42111 5.04881C8.36326 5.17301 8.27845 5.28588 8.17151 5.38096C8.06457 5.47605 7.93761 5.55148 7.79786 5.60297C7.65811 5.65445 7.50831 5.68097 7.35703 5.68102C7.20574 5.68107 7.05593 5.65464 6.91613 5.60324C6.77634 5.55185 6.64932 5.47649 6.5423 5.38147L5.32025 4.29566ZM20.7946 2.84859C21.0105 3.04051 21.1318 3.30076 21.1318 3.57213C21.1318 3.84349 21.0105 4.10375 20.7946 4.29566L19.5725 5.38096C19.4663 5.47871 19.3392 5.55667 19.1986 5.61031C19.0581 5.66394 18.907 5.69217 18.7541 5.69335C18.6011 5.69453 18.4495 5.66864 18.3079 5.61718C18.1664 5.56573 18.0378 5.48974 17.9296 5.39365C17.8215 5.29756 17.7359 5.1833 17.678 5.05753C17.6201 4.93176 17.591 4.797 17.5923 4.66111C17.5936 4.52523 17.6254 4.39094 17.6858 4.26608C17.7461 4.14122 17.8339 4.0283 17.9439 3.9339L19.1654 2.84859C19.2723 2.75352 19.3993 2.6781 19.5391 2.62665C19.6789 2.57519 19.8287 2.54871 19.98 2.54871C20.1313 2.54871 20.2811 2.57519 20.4208 2.62665C20.5606 2.6781 20.6876 2.75352 20.7946 2.84859ZM12.7983 4.88155C12.9673 4.74423 13.1909 4.67221 13.4197 4.68132C13.6486 4.69044 13.864 4.77995 14.0186 4.93016L14.0203 4.9317L14.022 4.93374L14.0278 4.93886L14.0451 4.95626L14.1027 5.01613C14.1526 5.0673 14.2232 5.14354 14.3146 5.24485C14.4983 5.44953 14.7667 5.76064 15.1197 6.20376C15.8252 7.08899 16.8716 8.50178 18.256 10.633C19.641 12.7637 20.4945 14.2747 21.0048 15.2612C21.1939 15.6229 21.3713 15.9892 21.5369 16.3598C21.5883 16.4761 21.6371 16.5933 21.6832 16.7114L21.6912 16.7334L21.6941 16.7405L21.6953 16.7441V16.7452C21.7617 16.9373 21.7406 17.145 21.6365 17.3235C21.5325 17.502 21.3537 17.6371 21.1388 17.6998C20.9238 17.7624 20.6897 17.7476 20.4869 17.6586C20.284 17.5696 20.1286 17.4134 20.054 17.2236C19.337 17.4375 18.6085 17.6483 17.8759 17.8545C17.6467 17.3585 17.4054 16.867 17.152 16.3803C16.4425 15.0215 15.6649 13.6917 14.8214 12.3947C13.9794 11.0973 13.0724 9.83403 12.1031 8.60872C11.7558 8.17099 11.3977 7.74004 11.0291 7.31619C11.5964 6.85566 12.1659 6.40026 12.7332 5.95559C12.5835 5.8047 12.5064 5.60762 12.5186 5.40675C12.5307 5.20588 12.6312 5.01729 12.7983 4.88155ZM16.1442 18.1497C16.1703 18.204 16.1958 18.2582 16.2208 18.3125C15.046 18.6323 13.8769 18.9388 12.747 19.2264L12.9065 19.7544C13.1671 20.6184 13.0307 21.539 12.5274 22.3136C12.024 23.0883 11.195 23.6535 10.2226 23.8851C9.25016 24.1166 8.21408 23.9954 7.34224 23.5482C6.4704 23.1009 5.83422 22.3643 5.57365 21.5003L5.42046 20.9927C4.85608 21.1206 4.37233 21.2296 3.98648 21.3151C3.03683 21.5259 2.00252 21.2414 1.39322 20.5056C1.17438 20.2405 0.929625 19.9274 0.732669 19.6234C0.536774 19.3158 0.359904 18.999 0.202845 18.6742C-0.209496 17.8376 0.0300762 16.8992 0.710785 16.2739C2.21387 14.8923 5.83165 11.6093 9.75465 8.36106L9.87386 8.49922C10.0668 8.72539 10.3472 9.06106 10.6911 9.49395C11.6303 10.6813 12.5092 11.9055 13.3252 13.1628C14.1426 14.4193 14.8962 15.7076 15.5839 17.024C15.8344 17.505 16.0215 17.8888 16.1448 18.1497H16.1442ZM7.64975 20.4759L7.79891 20.9702C7.84958 21.1384 7.93703 21.296 8.05627 21.4341C8.17551 21.5723 8.3242 21.6882 8.49386 21.7752C8.66351 21.8623 8.85081 21.9188 9.04505 21.9416C9.23929 21.9644 9.43668 21.9529 9.62594 21.9079C9.81519 21.8629 9.99262 21.7852 10.1481 21.6792C10.3035 21.5733 10.434 21.4411 10.532 21.2904C10.63 21.1397 10.6936 20.9732 10.7192 20.8007C10.7448 20.6281 10.7319 20.4527 10.6813 20.2845L10.5298 19.782C9.50068 20.0353 8.53029 20.2682 7.64975 20.4759Z" fill="white"/>
</svg>
